# xmcd CD database file
#
# Track frame offsets:
#	150
#	17924
#	31816
#	46186
#	65646
#	82940
#	101712
#	120472
#	139491
#	157724
#
# Disc length: 2305 seconds
#
# Revision: 0
# Processed by: cddbd v1.5.2PL0 Copyright (c) Steve Scherf et al.
# Submitted via: CDex 1.51
#
DISCID=7808ff0a
DTITLE=Anton Walgravens and the Nephews - Every night you pray
DYEAR=2008
DGENRE=Jazz
TTITLE0=The one you need
TTITLE1=When she calls
TTITLE2=Ready when you are
TTITLE3=roll me over 
TTITLE4=Since youve been gone
TTITLE5=When you walk away
TTITLE6=Don't let me go
TTITLE7=No one but you 
TTITLE8=Every night you pray
TTITLE9=Fall down
EXTD=YEAR: 2008
EXTT0=
EXTT1=
EXTT2=
EXTT3=
EXTT4=
EXTT5=
EXTT6=
EXTT7=
EXTT8=
EXTT9=
PLAYORDER=
